<?xml version="1.0" encoding="utf-8"?>
<svg viewBox="-1050 -1050 2100 1400" xmlns="http://www.w3.org/2000/svg">

   <!-- red area, fixed -->
   <path fill-rule="evenodd" clip-rule="evenodd" d="M 739.593 -693.807 C 859.42 -573.981 947.152 -428.06 997.26 -269.4 L 996.219 -269.06 C 998.694 -258.753 1000 -247.992 1000 -236.928 C 1000 -161.073 938.505 -99.574 862.647 -99.574 C 797.038 -99.574 742.175 -145.576 728.546 -207.082 C 690.725 -316.148 628.521 -416.381 545.344 -499.559 C 400.808 -644.094 204.778 -725.296 0.375 -725.296 C -204.026 -725.296 -400.058 -644.094 -544.593 -499.559 C -627.768 -416.386 -689.968 -316.153 -727.793 -207.083 C -729.748 -198.249 -732.555 -189.736 -736.126 -181.627 C -737.144 -178.332 -738.14 -175.028 -739.106 -171.72 L -740.58 -172.456 C -763.676 -129.095 -809.339 -99.574 -861.893 -99.574 C -937.753 -99.574 -999.245 -161.073 -999.245 -236.928 C -999.245 -243.876 -998.728 -250.705 -997.734 -257.378 L -1000 -258.115 C -950.533 -421.14 -861.5 -571.141 -738.841 -693.807 C -542.786 -889.859 -276.882 -1000 0.375 -1000 C 277.638 -1000 543.541 -889.859 739.593 -693.807 Z" fill="#FE7151" style=""/>

   <!-- mask for clipping orange and green cones -->
   <mask id="mask0_10_131" style="mask-type:alpha" maskUnits="userSpaceOnUse" x="-1000" y="-1000" width="2000" height="1000">
      <!-- red area again, but for clipping orange and green cones -->
      <path fill-rule="evenodd" clip-rule="evenodd" d="M 739.593 -693.807 C 859.42 -573.981 947.152 -428.06 997.26 -269.4 L 996.219 -269.06 C 998.694 -258.753 1000 -247.992 1000 -236.928 C 1000 -161.073 938.505 -99.574 862.647 -99.574 C 797.038 -99.574 742.175 -145.576 728.546 -207.082 C 690.725 -316.148 628.521 -416.381 545.344 -499.559 C 400.808 -644.094 204.778 -725.296 0.375 -725.296 C -204.026 -725.296 -400.058 -644.094 -544.593 -499.559 C -627.768 -416.386 -689.968 -316.153 -727.793 -207.083 C -729.748 -198.249 -732.555 -189.736 -736.126 -181.627 C -737.144 -178.332 -738.14 -175.028 -739.106 -171.72 L -740.58 -172.456 C -763.676 -129.095 -809.339 -99.574 -861.893 -99.574 C -937.753 -99.574 -999.245 -161.073 -999.245 -236.928 C -999.245 -243.876 -998.728 -250.705 -997.734 -257.378 L -1000 -258.115 C -950.533 -421.14 -861.5 -571.141 -738.841 -693.807 C -542.786 -889.859 -276.882 -1000 0.375 -1000 C 277.638 -1000 543.541 -889.859 739.593 -693.807 Z" fill="#FE7151" style=""/>
   </mask>

   <g mask="url(#mask0_10_131)">
      <path fill="#FED74C" transform="rotate(-10)" d="M 0 0 L -300 -1000 L300 -1000 Z"/>
      <path fill="#5DC67A" transform="rotate(-10)" d="M 0 0 L -200 -1000 L200 -1000 Z"/>
   </g>

   <!-- needle -->
   <path d="M 0 30 L -20 30 A 30 30 0 0 1 -50 0 L -120 -880 A 30 30 0 0 1   -100 -900   A 450 450 0 0 1   100 -900   A 30 30 0 0 1 120 -880 L 50 0 A 30 30 0 0 1 20 30" />
</svg>