<?xml version="1.0" encoding="utf-8"?>
<svg width="96px" height="54px" viewBox="0 0 96 54" fill="none" xmlns="http://www.w3.org/2000/svg">
  <path fill-rule="evenodd" clip-rule="evenodd" d="M83.1656 14.9589C88.8604 20.6536 93.0299 27.5885 95.4113 35.1288L95.3619 35.1449C95.4793 35.6347 95.5415 36.1461 95.5415 36.6719C95.5415 40.2771 92.619 43.1996 89.0138 43.1996C85.8958 43.1996 83.2884 41.0135 82.6407 38.0904C80.8433 32.9069 77.8871 28.1434 73.9341 24.1904C67.0651 17.3214 57.7488 13.4624 48.0346 13.4624C38.3204 13.4624 29.004 17.3214 22.135 24.1904C18.1821 28.1433 15.226 32.9068 13.4285 38.0902C13.3355 38.5101 13.202 38.9148 13.0324 39.3001C12.9841 39.4567 12.9368 39.6136 12.8907 39.7709L12.8207 39.7359C11.7232 41.7967 9.5531 43.1996 7.05534 43.1996C3.4502 43.1996 0.527668 40.2771 0.527668 36.6719C0.527668 36.3417 0.552191 36.0172 0.599514 35.7001L0.491821 35.6651C2.84276 27.9174 7.074 20.7884 12.9035 14.9589C22.2209 5.64153 34.8579 0.407104 48.0346 0.407104C61.2113 0.407104 73.8483 5.64153 83.1656 14.9589Z" fill="#FE7151"/>
  <mask id="mask0_10_131" style="mask-type:alpha" maskUnits="userSpaceOnUse" x="0" y="0" width="96" height="44">
    <path fill-rule="evenodd" clip-rule="evenodd" d="M83.2015 14.9589C88.8962 20.6536 93.0658 27.5885 95.4471 35.1288L95.3978 35.1449C95.5152 35.6347 95.5774 36.1461 95.5774 36.6719C95.5774 40.2771 92.6548 43.1996 89.0497 43.1996C85.9318 43.1996 83.3244 41.0136 82.6766 38.0906C80.8792 32.9071 77.923 28.1435 73.9699 24.1904C67.101 17.3214 57.7846 13.4624 48.0704 13.4624C38.3562 13.4624 29.0399 17.3214 22.1709 24.1904C18.218 28.1433 15.2619 32.9067 13.4644 38.09C13.3714 38.5101 13.2378 38.9149 13.0681 39.3003C13.0199 39.4568 12.9727 39.6137 12.9265 39.7709L12.8565 39.7359C11.7591 41.7967 9.58895 43.1996 7.09119 43.1996C3.48606 43.1996 0.563526 40.2771 0.563526 36.6719C0.563526 36.3417 0.588048 36.0172 0.63537 35.7001L0.527649 35.6651C2.87859 27.9174 7.10983 20.7884 12.9394 14.9589C22.2567 5.64153 34.8937 0.407104 48.0704 0.407104C61.2471 0.407104 73.8841 5.64153 83.2015 14.9589Z" fill="#FE7151"/>
  </mask>
  <g mask="url(#mask0_10_131)">
    <path d="M48.0346 53.3538L91.6893 -11.9229H4.37987L48.0346 53.3538Z" fill="#FED74C"/>
    <path d="M48.0346 53.3538L70.9612 -11.9229H25.108L48.0346 53.3538Z" fill="#5DC67A"/>
  </g>
  <g transform="matrix(1.681069, -0.823151, 0.823151, 1.681069, -78.384552, 30.5819)" style="">
    <path d="M 39.562 23.654 C 39.389 23.471 39.393 23.184 39.571 23.006 C 39.749 22.828 40.037 22.824 40.22 22.997 L 55.73 37.704 C 56.07 38.026 56.077 38.565 55.746 38.896 L 55.461 39.181 C 55.13 39.512 54.591 39.505 54.269 39.165 L 39.562 23.654 Z" fill="black" style=""/>
    <path d="M 56.102 40.231 C 55.929 40.048 55.933 39.761 56.111 39.583 C 56.289 39.405 56.577 39.401 56.76 39.574 L 72.27 54.281 C 72.61 54.603 72.617 55.142 72.286 55.473 L 72.001 55.758 C 71.67 56.089 71.131 56.082 70.809 55.742 L 56.102 40.231 Z" style=""/>
  </g>
</svg>